<svg width="58" height="52" fill="none" xmlns="http://www.w3.org/2000/svg"><path d="M51.154 9.19H48.46c-.47 0-.85.383-.85.857 0 .475.38.859.85.859h2.694c.47 0 .85-.384.85-.859a.854.854 0 00-.85-.858zM36.037 13.33c-4.751 0-8.616 3.906-8.616 8.708 0 4.8 3.865 8.704 8.616 8.704 4.752 0 8.619-3.905 8.619-8.704 0-4.802-3.867-8.708-8.62-8.708zm0 15.696c-3.814 0-6.917-3.135-6.917-6.988 0-3.855 3.103-6.992 6.917-6.992 3.815 0 6.92 3.137 6.92 6.992 0 3.853-3.105 6.988-6.92 6.988z" fill="#AE7C78"/><path d="M54.819 4.606H44.497l-1-2.79C43.338 1.367 42.848 0 41.462 0H28.244c-1.385 0-1.875 1.367-2.036 1.817l-1 2.79h-8.403V2.53c0-1.13-.91-2.05-2.029-2.05h-3.785c-1.117 0-2.025.92-2.025 2.05v2.112c-1.526.237-2.698 1.573-2.698 3.18V25.38l-3.85.755C.8 26.453-.26 28.042.056 29.675L3.87 49.557A3.007 3.007 0 006.808 52c.187 0 .376-.018.566-.055l8.299-1.626c.46-.09.761-.541.672-1.006a.85.85 0 00-.996-.68L7.052 50.26a1.295 1.295 0 01-1.514-1.03L1.723 29.347a1.304 1.304 0 011.02-1.527l20.691-4.055c.336-.065.678.006.965.202.287.196.48.49.545.831l3.818 19.88a1.304 1.304 0 01-1.02 1.527l-8.301 1.627a.858.858 0 00-.672 1.006.85.85 0 00.995.68l8.303-1.628c1.618-.318 2.678-1.907 2.363-3.54l-1.032-5.375h9.483c.47 0 .85-.385.85-.859a.854.854 0 00-.85-.858h-9.813l-.895-4.662a12.994 12.994 0 007.863 2.657c5.67 0 10.508-3.662 12.32-8.767h7.945v9.271c0 .828-.665 1.501-1.482 1.501H43.042c-.47 0-.85.384-.85.858s.38.859.85.859h11.777c1.754 0 3.181-1.444 3.181-3.218V7.824c0-1.775-1.427-3.218-3.181-3.218zM27.805 2.401c.163-.454.31-.684.44-.684H41.46c.16 0 .327.372.439.684l.79 2.205H27.016l.79-2.205zm-4.849 19.637l.002.072-6.153 1.206v-4.01h6.433a13.351 13.351 0 00-.282 2.732zM10.665 2.53c0-.18.149-.333.326-.333h3.785c.181 0 .33.15.33.333v2.075h-4.441V2.531zM7.967 7.824c0-.828.665-1.501 1.482-1.501h5.656v17.325l-2.876.564v-9.68a1.49 1.49 0 00-1.48-1.496H7.967V7.824zm0 6.929h2.563v9.792l-2.563.502V14.753zm28.07 18.783a11.332 11.332 0 01-8.403-3.744l-1.021-5.32a3.01 3.01 0 00-1.955-2.28l-.002-.154c0-6.342 5.105-11.502 11.38-11.502 6.278 0 11.385 5.16 11.385 11.502 0 6.34-5.107 11.498-11.384 11.498zM56.3 24.769h-7.463a13.346 13.346 0 000-5.463h7.463v5.463zm0-7.18h-7.944c-1.812-5.106-6.65-8.77-12.32-8.77s-10.506 3.664-12.318 8.77h-6.915V6.324h38.014c.818 0 1.483.673 1.483 1.5v9.767z" fill="#AE7C78"/><path d="M25.738 43.462c.2-.3.272-.653.204-.99l-2.887-14.659c-.154-.766-.946-1.235-1.805-1.068L5.49 29.833c-.862.168-1.423.905-1.276 1.684l2.889 14.649c.064.339.262.637.558.84.26.177.578.27.908.27.112 0 .226-.01.34-.032l15.757-3.089c.447-.087.837-.34 1.072-.693zM7.56 39.66l-1.619-8.167 15.507-3.038.94 4.776-1.988.39c-3.792.743-5.05 1.89-6.268 3-1.18 1.074-2.397 2.183-6.572 3.04zm1.151 5.873l-.396-2.062-.421-2.128c4.637-.953 6.088-2.275 7.376-3.448 1.14-1.04 2.126-1.937 5.454-2.589l1.996-.392 1.493 7.581-15.502 3.038z" fill="#AE7C78"/></svg>